<svg width="401" height="601" viewBox="0 0 401 601" fill="none" xmlns="http://www.w3.org/2000/svg">
<path d="M297.37 516.949C293.271 516.714 286.672 515.703 270.388 517.048C244.939 519.15 216.368 510.608 192.916 500.668C165.863 489.202 127.83 493.881 100.026 501.493C75.1476 508.305 46.4522 505.636 30.1957 483.068C6.64608 450.375 37.4945 401.68 45.7012 367.941C58.8083 314.056 53.8917 256.905 48.5266 202.353C46.1713 178.404 41.5302 154.255 41.6889 130.155C41.8024 112.922 42.6224 95.6742 42.6224 78.4469H215.09C214.539 80.0768 213.458 86.1902 213.395 87.8611C207.657 183.353 152.219 284.408 177.245 381.771C181.849 399.682 205.825 409.125 220.299 418.114C243.288 432.389 265.97 459.44 293.039 466.687C305.365 469.987 314.026 469.594 322.6 473.465C328.741 476.238 340.634 483.459 345.382 484.951C354.392 487.782 376.892 493.065 378.143 505.662C378.808 512.358 368.372 516.201 363.645 516.949C358.095 517.827 352.537 514.162 349.901 516.319C341.66 523.063 324.981 521.289 314.503 521.289C309.116 521.289 301.504 517.185 297.37 516.949Z" fill="#F8EDD1"/>
<path d="M107.737 414.674C108.122 416.219 109.887 418.781 114.346 424.812C115.628 426.547 116.911 428.541 118.806 429.671C120.254 430.534 123.341 429.765 130.14 429.927C133.903 430.017 134.248 433.961 135.578 436.805C136.481 438.735 138.438 441.61 140.839 444.919C145.082 450.767 147.94 454.952 147.747 457.683C147.578 460.079 146.157 462.626 144.779 463.643C143.485 464.598 137.67 463.796 132.354 463.981C125.647 464.215 118.912 464.57 112.203 464.504C106.344 464.447 101.255 470.082 96.9808 473.519C94.6308 475.409 90.9917 478.193 88.3197 480.118C84.1313 483.136 81.9184 484.184 80.5579 484.443C63.1219 487.756 50.8041 466.073 49.2861 451.223C48.5264 443.791 51.6891 436.61 52.7454 429.401C53.7246 422.719 61.0458 415.509 66.6055 411.915C71.875 412.293 75.984 416.205 80.855 417.552C89.1655 419.849 94.9007 409.686 102.5 408.3C105.298 407.789 107.251 412.718 107.737 414.674Z" fill="#E5E5EA"/>
<path d="M155.035 390.428C157.362 390.469 159.282 391.239 160.037 393.315C160.928 395.765 161.311 397.53 161.631 398.799C161.955 400.089 162.199 400.778 162.749 401.249C164.401 402.664 172.949 406.673 171.798 409.583C168.319 418.382 160.542 424.784 157.655 433.879C156.326 438.066 155.223 448.859 150.132 449.684C145.974 450.357 142.212 444.222 140.425 441.335C139.505 439.847 138.835 438.529 138.61 437.826C137.683 434.934 136.887 431.174 134.783 428.827C133.239 427.104 129.816 428.05 127.817 428.098C117.101 428.351 112.236 412.265 106.877 405.266C112.189 403.163 117.184 399.166 123.043 398.773C126.633 398.533 130.425 398.417 133.45 397.451C134.437 397.137 136.373 396.252 138.82 395.192C143.803 393.032 149.483 390.328 155.035 390.428Z" fill="#E5E5EA"/>
<path d="M176.556 409.847C176.155 410.28 170.191 415.867 168.294 420.028C166.174 424.678 165.92 424.245 164.768 425.787C160.929 430.927 155.154 448.424 155.419 454.869C155.673 461.074 164.619 458.703 167.299 459.945C174.016 463.055 173.595 454.137 175.626 449.898C176.908 447.22 181.205 444.614 184.358 442.309C186.789 440.532 198.13 422.998 194.953 420.994C189.604 417.62 182.02 412.683 176.556 409.847Z" fill="#E5E5EA"/>
<path d="M167.696 477.209C167.835 475.784 168.675 471.781 171.485 466.594L171.655 466.281C174.701 460.658 176.886 456.624 178.191 453.939C179.524 451.197 181.258 450.567 183.563 449.218C186.232 447.657 187.155 447.862 193.875 449.356L193.987 449.381C197.704 450.207 204.087 455.17 204.898 456.939C206.35 460.103 207.499 461.273 205.109 468.467C204.372 470.684 202.213 474.409 199.7 479.486C197.071 484.795 197.143 484.538 195.396 485.907C193.02 487.769 185.797 485.169 181.27 482.004C171.535 478.314 169.425 477.373 167.696 477.209Z" fill="#E5E5EA"/>
<path d="M208.236 469.629C207.133 470.306 204.694 477.273 203.198 482.301C202.902 483.296 202.603 486.062 202.909 486.433C206.215 490.439 215.391 490.642 217.689 493.695C218.591 494.892 222.626 497.077 224.044 497.537C225.134 497.891 228.319 497.43 228.653 496.16C230.065 490.786 228.873 495.578 230.842 489.141C232.595 483.412 238.729 478.161 238.733 477.271C238.737 476.408 238.046 474.301 237.038 473.409C236.525 472.954 232.144 470.447 227.836 470.057C223.528 469.667 221.649 467.438 217.209 468.181C212.434 468.98 209.617 468.783 208.236 469.629Z" fill="#E5E5EA"/>
<path d="M211.068 461.522C209.765 460.765 208.875 457.422 207.732 455.249C204.593 449.279 196.881 446.391 190.681 445.375C186.041 444.614 198.37 425.166 203.22 425.301C209.901 425.488 218.704 433.946 224.246 437.718C225.081 438.287 225.384 445.6 221.484 447.529C214.614 450.927 216.44 460.291 215.013 461.798C214.338 462.326 211.699 461.889 211.068 461.522Z" fill="#E5E5EA"/>
<path d="M0.5 0.5H400.5V600.5H0.5V0.5Z" stroke-linecap="round"/>
<path d="M297.37 516.949C293.271 516.714 286.672 515.703 270.388 517.048C244.939 519.15 216.368 510.608 192.916 500.668C165.863 489.202 127.83 493.881 100.026 501.493C75.1476 508.305 46.4522 505.636 30.1957 483.068C6.64608 450.375 37.4945 401.68 45.7012 367.941C58.8083 314.056 53.8917 256.905 48.5266 202.353C46.1713 178.404 41.5302 154.255 41.6889 130.155C41.8024 112.922 42.6224 95.6742 42.6224 78.4469H215.09C214.539 80.0768 213.458 86.1902 213.395 87.8611C207.657 183.353 152.219 284.408 177.245 381.771C181.849 399.682 205.825 409.125 220.299 418.114C243.288 432.389 265.97 459.44 293.039 466.687C305.365 469.987 314.026 469.594 322.6 473.465C328.741 476.238 340.634 483.459 345.382 484.951C354.392 487.782 376.892 493.065 378.143 505.662C378.808 512.358 368.372 516.201 363.645 516.949C358.095 517.827 352.537 514.162 349.901 516.319C341.66 523.063 324.981 521.289 314.503 521.289C309.116 521.289 301.504 517.185 297.37 516.949Z" stroke="black" stroke-linecap="round"/>
<path d="M107.737 414.674C108.122 416.219 109.887 418.781 114.346 424.812C115.628 426.547 116.911 428.541 118.806 429.671C120.254 430.534 123.341 429.765 130.14 429.927C133.903 430.017 134.248 433.961 135.578 436.805C136.481 438.735 138.438 441.61 140.839 444.919C145.082 450.767 147.94 454.952 147.747 457.683C147.578 460.079 146.157 462.626 144.779 463.643C143.485 464.598 137.67 463.796 132.354 463.981C125.647 464.215 118.912 464.57 112.203 464.504C106.344 464.447 101.255 470.082 96.9808 473.519C94.6308 475.409 90.9917 478.193 88.3197 480.118C84.1313 483.136 81.9184 484.184 80.5579 484.443C63.1219 487.756 50.8041 466.073 49.2861 451.223C48.5264 443.791 51.6891 436.61 52.7454 429.401C53.7246 422.719 61.0458 415.509 66.6055 411.915C71.875 412.293 75.984 416.205 80.855 417.552C89.1655 419.849 94.9007 409.686 102.5 408.3C105.298 407.789 107.251 412.718 107.737 414.674Z" stroke="black" stroke-linecap="round"/>
<path d="M155.035 390.428C157.362 390.469 159.282 391.239 160.037 393.315C160.928 395.765 161.311 397.53 161.631 398.799C161.955 400.089 162.199 400.778 162.749 401.249C164.401 402.664 172.949 406.673 171.798 409.583C168.319 418.382 160.542 424.784 157.655 433.879C156.326 438.066 155.223 448.859 150.132 449.684C145.974 450.357 142.212 444.222 140.425 441.335C139.505 439.847 138.835 438.529 138.61 437.826C137.683 434.934 136.887 431.174 134.783 428.827C133.239 427.104 129.816 428.05 127.817 428.098C117.101 428.351 112.236 412.265 106.877 405.266C112.189 403.163 117.184 399.166 123.043 398.773C126.633 398.533 130.425 398.417 133.45 397.451C134.437 397.137 136.373 396.252 138.82 395.192C143.803 393.032 149.483 390.328 155.035 390.428Z" stroke="black" stroke-linecap="round"/>
<path d="M176.556 409.847C176.155 410.28 170.191 415.867 168.294 420.028C166.174 424.678 165.92 424.245 164.768 425.787C160.929 430.927 155.154 448.424 155.419 454.869C155.673 461.074 164.619 458.703 167.299 459.945C174.016 463.055 173.595 454.137 175.626 449.898C176.908 447.22 181.205 444.614 184.358 442.309C186.789 440.532 198.13 422.998 194.953 420.994C189.604 417.62 182.02 412.683 176.556 409.847Z" stroke="black" stroke-linecap="round"/>
<path d="M167.696 477.209C167.835 475.784 168.675 471.781 171.485 466.594L171.655 466.281C174.701 460.658 176.886 456.624 178.191 453.939C179.524 451.197 181.258 450.567 183.563 449.218C186.232 447.657 187.155 447.862 193.875 449.356L193.987 449.381C197.704 450.207 204.087 455.17 204.898 456.939C206.35 460.103 207.499 461.273 205.109 468.467C204.372 470.684 202.213 474.409 199.7 479.486C197.071 484.795 197.143 484.538 195.396 485.907C193.02 487.769 185.797 485.169 181.27 482.004C171.535 478.314 169.425 477.373 167.696 477.209Z" stroke="black" stroke-linecap="round"/>
<path d="M208.236 469.629C207.133 470.306 204.694 477.273 203.198 482.301C202.902 483.296 202.603 486.062 202.909 486.433C206.215 490.439 215.391 490.642 217.689 493.695C218.591 494.892 222.626 497.077 224.044 497.537C225.134 497.891 228.319 497.43 228.653 496.16C230.065 490.786 228.873 495.578 230.842 489.141C232.595 483.412 238.729 478.161 238.733 477.271C238.737 476.408 238.046 474.301 237.038 473.409C236.525 472.954 232.144 470.447 227.836 470.057C223.528 469.667 221.649 467.438 217.209 468.181C212.434 468.98 209.617 468.783 208.236 469.629Z" stroke="black" stroke-linecap="round"/>
<path d="M211.068 461.522C209.765 460.765 208.875 457.422 207.732 455.249C204.593 449.279 196.881 446.391 190.681 445.375C186.041 444.614 198.37 425.166 203.22 425.301C209.901 425.488 218.704 433.946 224.246 437.718C225.081 438.287 225.384 445.6 221.484 447.529C214.614 450.927 216.44 460.291 215.013 461.798C214.338 462.326 211.699 461.889 211.068 461.522Z" stroke="black" stroke-linecap="round"/>
</svg>
